<?xml version="1.0" encoding="UTF-8" standalone="no"?>
<svg
   xmlns:dc="http://purl.org/dc/elements/1.1/"
   xmlns:cc="http://creativecommons.org/ns#"
   xmlns:rdf="http://www.w3.org/1999/02/22-rdf-syntax-ns#"
   xmlns:svg="http://www.w3.org/2000/svg"
   xmlns="http://www.w3.org/2000/svg"
   xmlns:xlink="http://www.w3.org/1999/xlink"
   xmlns:sodipodi="http://sodipodi.sourceforge.net/DTD/sodipodi-0.dtd"
   xmlns:inkscape="http://www.inkscape.org/namespaces/inkscape"
   sodipodi:docname="Air Mail Envelope.svg"
   inkscape:version="1.0 (4035a4fb49, 2020-05-01)"
   width="210.61694mm"
   height="198.61295mm"
   viewBox="0 0 210.61694 198.61295"
   version="1.1"
   id="SVGRoot"
   inkscape:export-filename="D:\users\Downloads\Air Mail Envelope.png"
   inkscape:export-xdpi="300"
   inkscape:export-ydpi="300">
  <defs
     id="defs1402">
    <filter
       id="filter1634"
       style="color-interpolation-filters:sRGB"
       inkscape:menu-tooltip="Colorized blotches, like a crowd of people"
       inkscape:menu="Overlays"
       inkscape:label="Postmark">
      <feTurbulence
         seed="0"
         id="feTurbulence1620"
         baseFrequency="0.050000000000000003 0.080000000000000002"
         numOctaves="1"
         type="fractalNoise"
         result="result7" />
      <feColorMatrix
         id="feColorMatrix1622"
         values="1 0 0 0 0 0 1 0 0 0 0 0 1 0 0 0 0 0 5.5 -2 "
         result="result5" />
      <feComposite
         id="feComposite1624"
         in2="result7"
         operator="in"
         in="SourceGraphic"
         result="result6" />
      <feDisplacementMap
         id="feDisplacementMap1626"
         in2="result6"
         result="result4"
         scale="0"
         yChannelSelector="A"
         xChannelSelector="R"
         in="result5" />
      <feComposite
         id="feComposite1628"
         in="SourceGraphic"
         in2="result4"
         operator="in"
         result="result2" />
      <feComposite
         id="feComposite1630"
         result="result91"
         in2="SourceGraphic"
         operator="in"
         in="result2" />
      <feBlend
         id="feBlend1632"
         in2="result91"
         mode="multiply" />
    </filter>
    <filter
       height="1.022"
       y="-0.010999965"
       width="1.0264001"
       x="-0.013200051"
       id="filter853"
       style="color-interpolation-filters:sRGB"
       inkscape:collect="always"
       inkscape:label="PostStamp">
      <feGaussianBlur
         id="feGaussianBlur855"
         stdDeviation="0.13750066"
         inkscape:collect="always" />
    </filter>
    <filter
       inkscape:collect="always"
       style="color-interpolation-filters:sRGB"
       id="filter1590"
       x="-0.0026727924"
       width="1.0053456"
       y="-0.011258419"
       height="1.0225168"
       inkscape:label="Envelope1">
      <feGaussianBlur
         inkscape:collect="always"
         stdDeviation="0.23330923"
         id="feGaussianBlur1592" />
    </filter>
    <filter
       inkscape:collect="always"
       style="color-interpolation-filters:sRGB"
       id="filter1613"
       x="-0.0029138671"
       width="1.0058277"
       y="-0.0083488896"
       height="1.0166978"
       inkscape:label="Envelope2">
      <feGaussianBlur
         inkscape:collect="always"
         stdDeviation="0.25469613"
         id="feGaussianBlur1615" />
    </filter>
  </defs>
  <sodipodi:namedview
     fit-margin-bottom="0"
     fit-margin-right="0"
     fit-margin-left="0"
     fit-margin-top="0"
     inkscape:bbox-nodes="false"
     inkscape:guide-bbox="true"
     showguides="true"
     inkscape:bbox-paths="false"
     inkscape:snap-bbox="false"
     id="base"
     pagecolor="#ffffff"
     bordercolor="#666666"
     borderopacity="1.0"
     inkscape:pageopacity="0.0"
     inkscape:pageshadow="2"
     inkscape:zoom="1.5"
     inkscape:cx="400.96513"
     inkscape:cy="210.21649"
     inkscape:document-units="mm"
     inkscape:current-layer="layer4"
     inkscape:document-rotation="0"
     showgrid="false"
     inkscape:window-width="1920"
     inkscape:window-height="1002"
     inkscape:window-x="-8"
     inkscape:window-y="-8"
     inkscape:window-maximized="1"
     inkscape:showpageshadow="false"
     inkscape:snap-global="false" />
  <metadata
     id="metadata1405">
    <rdf:RDF>
      <cc:Work
         rdf:about="">
        <dc:format>image/svg+xml</dc:format>
        <dc:type
           rdf:resource="http://purl.org/dc/dcmitype/StillImage" />
        <dc:title></dc:title>
        <cc:license
           rdf:resource="http://artlibre.org/licence/lal" />
      </cc:Work>
      <cc:License
         rdf:about="http://artlibre.org/licence/lal">
        <cc:permits
           rdf:resource="http://creativecommons.org/ns#Reproduction" />
        <cc:permits
           rdf:resource="http://creativecommons.org/ns#Distribution" />
        <cc:permits
           rdf:resource="http://creativecommons.org/ns#DerivativeWorks" />
        <cc:requires
           rdf:resource="http://creativecommons.org/ns#ShareAlike" />
        <cc:requires
           rdf:resource="http://creativecommons.org/ns#Notice" />
        <cc:requires
           rdf:resource="http://creativecommons.org/ns#Attribution" />
      </cc:License>
    </rdf:RDF>
    <rdf:RDF>
      <cc:Work
         rdf:about="">
        <dc:title />
      </cc:Work>
    </rdf:RDF>
    <rdf:RDF>
      <cc:Work
         rdf:about="">
        <dc:title />
      </cc:Work>
    </rdf:RDF>
    <rdf:RDF>
      <cc:Work
         rdf:about="">
        <dc:title />
      </cc:Work>
    </rdf:RDF>
    <rdf:RDF>
      <cc:Work
         rdf:about="">
        <dc:title />
      </cc:Work>
    </rdf:RDF>
    <rdf:RDF>
      <cc:Work
         rdf:about="">
        <dc:title />
      </cc:Work>
    </rdf:RDF>
    <rdf:RDF>
      <cc:Work
         rdf:about="">
        <dc:title />
      </cc:Work>
    </rdf:RDF>
  </metadata>
  <g
     transform="translate(0.31537838)"
     sodipodi:insensitive="true"
     inkscape:groupmode="layer"
     id="layer5"
     inkscape:label="Envelope">
    <path
       id="path1594"
       d="M 0.61127072,198.00167 105.50121,124.78586 210.39116,198.00167 Z"
       style="opacity:0.5;fill:#000000;stroke:none;stroke-width:0;stroke-linecap:butt;stroke-linejoin:miter;stroke-miterlimit:4;stroke-dasharray:none;stroke-opacity:1;filter:url(#filter1613)"
       sodipodi:nodetypes="cccc"
       transform="matrix(0.99596402,0,0,-1,0.00246706,297.18529)" />
    <path
       sodipodi:nodetypes="cccc"
       style="opacity:1;mix-blend-mode:normal;fill:#ffffff;stroke:none;stroke-width:0.265;stroke-linecap:butt;stroke-linejoin:miter;stroke-miterlimit:4;stroke-dasharray:none;stroke-opacity:1"
       d="M 0.6112707,99.183619 105.07788,172.39943 209.54449,99.183619 Z"
       id="path1617" />
    <path
       transform="matrix(1,0,0,-1,0,297.18529)"
       style="opacity:0.5;fill:#000000;stroke:none;stroke-width:0;stroke-linecap:butt;stroke-linejoin:miter;stroke-miterlimit:4;stroke-dasharray:none;stroke-opacity:1;filter:url(#filter1590)"
       d="m 0.24456379,99.132291 7.42652081,7.353239 91.2810064,41.31386 c 0,0 2.565199,1.02909 5.722709,1.06733 3.21999,0.0389 5.70136,-1.08615 5.70136,-1.08615 l 91.25222,-41.35231 8.11325,-7.295969 z"
       id="path1584"
       sodipodi:nodetypes="cccscccc" />
    <path
       sodipodi:nodetypes="cccscccc"
       id="path853"
       d="M 0.24456379,198.053 7.6710846,190.69976 98.952091,149.3859 c 0,0 2.565199,-1.02909 5.722709,-1.06733 3.21999,-0.0389 5.70136,1.08615 5.70136,1.08615 l 91.25222,41.35231 8.11325,7.29597 z"
       style="fill:#ffffff;stroke:none;stroke-width:0.265;stroke-linecap:butt;stroke-linejoin:miter;stroke-miterlimit:4;stroke-dasharray:none;stroke-opacity:1" />
  </g>
  <g
     transform="translate(0.31537838)"
     sodipodi:insensitive="true"
     inkscape:label="Border"
     inkscape:groupmode="layer"
     id="layer1">
    <g
       id="g1933">
      <path
         style="opacity:1;fill:#d6464f;fill-opacity:1;fill-rule:evenodd;stroke:none;stroke-width:0;stroke-linecap:round;stroke-miterlimit:4;stroke-dasharray:none"
         d="m 193.97575,93.999946 -5.31957,5.000209 h 7.36493 l 5.31957,-5.000209 z"
         id="path1222" />
      <path
         style="opacity:1;fill:#388fe2;fill-opacity:1;fill-rule:evenodd;stroke:none;stroke-width:0;stroke-linecap:round;stroke-miterlimit:4;stroke-dasharray:none"
         d="m 179.98229,93.999946 -5.31957,5.000209 h 7.36493 l 5.31957,-5.000209 z"
         id="path1220" />
      <path
         style="opacity:1;fill:#d6464f;fill-opacity:1;fill-rule:evenodd;stroke:none;stroke-width:0;stroke-linecap:round;stroke-miterlimit:4;stroke-dasharray:none"
         d="m 165.98883,93.999946 -5.31957,5.000209 h 7.36492 l 5.31958,-5.000209 z"
         id="path1218" />
      <path
         style="opacity:1;fill:#388fe2;fill-opacity:1;fill-rule:evenodd;stroke:none;stroke-width:0;stroke-linecap:round;stroke-miterlimit:4;stroke-dasharray:none"
         d="m 151.99485,93.999946 -5.31957,5.000209 h 7.36544 l 5.31958,-5.000209 z"
         id="path1216" />
      <path
         style="opacity:1;fill:#d6464f;fill-opacity:1;fill-rule:evenodd;stroke:none;stroke-width:0;stroke-linecap:round;stroke-miterlimit:4;stroke-dasharray:none"
         d="m 138.00139,93.999946 -5.31957,5.000209 h 7.36493 l 5.31957,-5.000209 z"
         id="path1214" />
      <path
         style="opacity:1;fill:#388fe2;fill-opacity:1;fill-rule:evenodd;stroke:none;stroke-width:0;stroke-linecap:round;stroke-miterlimit:4;stroke-dasharray:none"
         d="m 124.00793,93.999946 -5.31957,5.000209 h 7.36493 l 5.31957,-5.000209 z"
         id="path1212" />
      <path
         style="opacity:1;fill:#d6464f;fill-opacity:1;fill-rule:evenodd;stroke:none;stroke-width:0;stroke-linecap:round;stroke-miterlimit:4;stroke-dasharray:none"
         d="m 110.01447,93.999946 -5.31957,5.000209 h 7.36492 l 5.31958,-5.000209 z"
         id="path1210" />
      <path
         style="opacity:1;fill:#388fe2;fill-opacity:1;fill-rule:evenodd;stroke:none;stroke-width:0;stroke-linecap:round;stroke-miterlimit:4;stroke-dasharray:none"
         d="m 96.020495,93.999946 -5.319573,5.000209 h 7.364926 l 5.319572,-5.000209 z"
         id="path1208" />
      <path
         style="opacity:1;fill:#d6464f;fill-opacity:1;fill-rule:evenodd;stroke:none;stroke-width:0;stroke-linecap:round;stroke-miterlimit:4;stroke-dasharray:none"
         d="m 82.027034,93.999946 -5.319572,5.000209 h 7.364926 l 5.319572,-5.000209 z"
         id="path1206" />
      <path
         style="opacity:1;fill:#388fe2;fill-opacity:1;fill-rule:evenodd;stroke:none;stroke-width:0;stroke-linecap:round;stroke-miterlimit:4;stroke-dasharray:none"
         d="m 68.033574,93.999946 -5.319572,5.000209 h 7.364923 l 5.319572,-5.000209 z"
         id="path1204" />
      <path
         style="opacity:1;fill:#d6464f;fill-opacity:1;fill-rule:evenodd;stroke:none;stroke-width:0;stroke-linecap:round;stroke-miterlimit:4;stroke-dasharray:none"
         d="m 54.040111,93.999946 -5.319573,5.000209 h 7.364926 l 5.319572,-5.000209 z"
         id="path1202" />
      <path
         style="opacity:1;fill:#388fe2;fill-opacity:1;fill-rule:evenodd;stroke:none;stroke-width:0;stroke-linecap:round;stroke-miterlimit:4;stroke-dasharray:none"
         d="m 40.046134,93.999946 -5.319572,5.000209 h 7.364926 l 5.319572,-5.000209 z"
         id="path1200" />
      <path
         style="opacity:1;fill:#d6464f;fill-opacity:1;fill-rule:evenodd;stroke:none;stroke-width:0;stroke-linecap:round;stroke-miterlimit:4;stroke-dasharray:none"
         d="m 26.052673,93.999946 -5.319572,5.000209 h 7.364926 l 5.31957,-5.000209 z"
         id="path1198" />
      <path
         style="opacity:1;fill:#388fe2;fill-opacity:1;fill-rule:evenodd;stroke:none;stroke-width:0;stroke-linecap:round;stroke-miterlimit:4;stroke-dasharray:none"
         d="m 12.059212,93.999946 -5.3195718,5.000209 h 7.3649248 l 5.319572,-5.000209 z"
         id="path1196" />
      <path
         style="opacity:1;fill:#388fe2;fill-opacity:1;fill-rule:evenodd;stroke:none;stroke-width:0;stroke-linecap:round;stroke-miterlimit:4;stroke-dasharray:none"
         d="m 210.0001,92.091535 -7.34994,6.90862 h 7.34994 z"
         id="path1194" />
      <path
         id="path1192"
         style="opacity:1;fill:#d6464f;fill-opacity:1;fill-rule:evenodd;stroke:none;stroke-width:0;stroke-linecap:round;stroke-miterlimit:4;stroke-dasharray:none"
         d="M 5.0003976,87.481583 1.8599614e-4,92.181554 v 6.818711 H 0.11129033 L 5.0019478,94.403126 v -0.403077 h -0.00155 z" />
      <path
         style="opacity:1;fill:#d6464f;fill-opacity:1;fill-rule:evenodd;stroke:none;stroke-width:0;stroke-linecap:round;stroke-miterlimit:4;stroke-dasharray:none"
         d="m 210.0001,78.938333 -5.00021,4.699971 v 6.922574 l 5.00021,-4.699971 z"
         id="path1190" />
      <path
         style="opacity:1;fill:#388fe2;fill-opacity:1;fill-rule:evenodd;stroke:none;stroke-width:0;stroke-linecap:round;stroke-miterlimit:4;stroke-dasharray:none"
         d="M 5.0002117,74.328278 0,79.028249 v 6.923093 l 5.0002117,-4.699971 z"
         id="path1188" />
      <path
         style="opacity:1;fill:#388fe2;fill-opacity:1;fill-rule:evenodd;stroke:none;stroke-width:0;stroke-linecap:round;stroke-miterlimit:4;stroke-dasharray:none"
         d="m 210.0001,65.784615 -5.00021,4.699971 v 6.92309 l 5.00021,-4.699971 z"
         id="path1186" />
      <path
         style="opacity:1;fill:#d6464f;fill-opacity:1;fill-rule:evenodd;stroke:none;stroke-width:0;stroke-linecap:round;stroke-miterlimit:4;stroke-dasharray:none"
         d="M 5.0002117,61.175076 0,65.875047 v 6.922574 L 5.0002117,68.09765 Z"
         id="path1184" />
      <path
         style="opacity:1;fill:#d6464f;fill-opacity:1;fill-rule:evenodd;stroke:none;stroke-width:0;stroke-linecap:round;stroke-miterlimit:4;stroke-dasharray:none"
         d="m 210.0001,52.631413 -5.00021,4.699971 v 6.922575 l 5.00021,-4.699971 z"
         id="path1182" />
      <path
         style="opacity:1;fill:#388fe2;fill-opacity:1;fill-rule:evenodd;stroke:none;stroke-width:0;stroke-linecap:round;stroke-miterlimit:4;stroke-dasharray:none"
         d="M 5.0002117,48.021874 0,52.721845 v 6.922574 l 5.0002117,-4.69997 z"
         id="path1180" />
      <path
         style="opacity:1;fill:#388fe2;fill-opacity:1;fill-rule:evenodd;stroke:none;stroke-width:0;stroke-linecap:round;stroke-miterlimit:4;stroke-dasharray:none"
         d="m 210.0001,39.478209 -5.00021,4.699973 v 6.922575 l 5.00021,-4.699971 z"
         id="path1178" />
      <path
         style="opacity:1;fill:#d6464f;fill-opacity:1;fill-rule:evenodd;stroke:none;stroke-width:0;stroke-linecap:round;stroke-miterlimit:4;stroke-dasharray:none"
         d="M 5.0002117,34.868672 0,39.568643 v 6.922574 l 5.0002117,-4.69997 z"
         id="path1176" />
      <path
         style="opacity:1;fill:#d6464f;fill-opacity:1;fill-rule:evenodd;stroke:none;stroke-width:0;stroke-linecap:round;stroke-miterlimit:4;stroke-dasharray:none"
         d="m 210.0001,26.325008 -5.00021,4.699972 v 6.922575 l 5.00021,-4.699971 z"
         id="path1174" />
      <path
         style="opacity:1;fill:#388fe2;fill-opacity:1;fill-rule:evenodd;stroke:none;stroke-width:0;stroke-linecap:round;stroke-miterlimit:4;stroke-dasharray:none"
         d="M 5.0002117,21.71547 0,26.415442 v 6.922574 l 5.0002117,-4.699971 z"
         id="path1172" />
      <path
         style="opacity:1;fill:#388fe2;fill-opacity:1;fill-rule:evenodd;stroke:none;stroke-width:0;stroke-linecap:round;stroke-miterlimit:4;stroke-dasharray:none"
         d="m 210.0001,13.171289 -5.00021,4.699971 v 6.922575 l 5.00021,-4.699971 z"
         id="path1170" />
      <path
         style="opacity:1;fill:#d6464f;fill-opacity:1;fill-rule:evenodd;stroke:none;stroke-width:0;stroke-linecap:round;stroke-miterlimit:4;stroke-dasharray:none"
         d="M 5.0002117,8.561751 0,13.261723 v 6.922574 l 5.0002117,-4.699971 z"
         id="path1168" />
      <path
         id="path1166"
         style="opacity:1;fill:#d6464f;fill-opacity:1;fill-rule:evenodd;stroke:none;stroke-width:0;stroke-linecap:round;stroke-miterlimit:4;stroke-dasharray:none"
         d="m 210.00029,0.0181901 -5.00125,4.7010049 v 0.2811198 h 0.001 v 6.6404212 l 5.00022,-4.6999713 z" />
      <path
         style="opacity:1;fill:#388fe2;fill-opacity:1;fill-rule:evenodd;stroke:none;stroke-width:0;stroke-linecap:round;stroke-miterlimit:4;stroke-dasharray:none"
         d="m 196.02576,0 -5.31957,5.0002117 h 7.36492 L 203.39068,0 Z"
         id="path1164" />
      <path
         style="opacity:1;fill:#d6464f;fill-opacity:1;fill-rule:evenodd;stroke:none;stroke-width:0;stroke-linecap:round;stroke-miterlimit:4;stroke-dasharray:none"
         d="m 182.0323,0 -5.31958,5.0002117 h 7.36493 L 189.39722,0 Z"
         id="path1162" />
      <path
         style="opacity:1;fill:#388fe2;fill-opacity:1;fill-rule:evenodd;stroke:none;stroke-width:0;stroke-linecap:round;stroke-miterlimit:4;stroke-dasharray:none"
         d="m 168.03832,0 -5.31957,5.0002117 h 7.36492 L 175.40325,0 Z"
         id="path1160" />
      <path
         style="opacity:1;fill:#d6464f;fill-opacity:1;fill-rule:evenodd;stroke:none;stroke-width:0;stroke-linecap:round;stroke-miterlimit:4;stroke-dasharray:none"
         d="m 154.04486,0 -5.31957,5.0002117 h 7.36492 L 161.40978,0 Z"
         id="path1158" />
      <path
         style="opacity:1;fill:#388fe2;fill-opacity:1;fill-rule:evenodd;stroke:none;stroke-width:0;stroke-linecap:round;stroke-miterlimit:4;stroke-dasharray:none"
         d="m 140.0514,0 -5.31957,5.0002117 h 7.36492 L 147.41632,0 Z"
         id="path1156" />
      <path
         style="opacity:1;fill:#d6464f;fill-opacity:1;fill-rule:evenodd;stroke:none;stroke-width:0;stroke-linecap:round;stroke-miterlimit:4;stroke-dasharray:none"
         d="m 126.05742,0 -5.31957,5.0002117 h 7.36544 L 133.42286,0 Z"
         id="path1154" />
      <path
         style="opacity:1;fill:#388fe2;fill-opacity:1;fill-rule:evenodd;stroke:none;stroke-width:0;stroke-linecap:round;stroke-miterlimit:4;stroke-dasharray:none"
         d="m 112.06396,0 -5.31957,5.0002117 h 7.36492 L 119.42889,0 Z"
         id="path1152" />
      <path
         style="opacity:1;fill:#d6464f;fill-opacity:1;fill-rule:evenodd;stroke:none;stroke-width:0;stroke-linecap:round;stroke-miterlimit:4;stroke-dasharray:none"
         d="m 98.070499,0 -5.319572,5.0002117 h 7.364923 L 105.43542,0 Z"
         id="path1150" />
      <path
         style="opacity:1;fill:#388fe2;fill-opacity:1;fill-rule:evenodd;stroke:none;stroke-width:0;stroke-linecap:round;stroke-miterlimit:4;stroke-dasharray:none"
         d="M 84.077036,0 78.757467,5.0002117 H 86.12239 L 91.441962,0 Z"
         id="path1148" />
      <path
         style="opacity:1;fill:#d6464f;fill-opacity:1;fill-rule:evenodd;stroke:none;stroke-width:0;stroke-linecap:round;stroke-miterlimit:4;stroke-dasharray:none"
         d="m 70.08306,0 -5.319572,5.0002117 h 7.364926 L 77.447986,0 Z"
         id="path1146" />
      <path
         style="opacity:1;fill:#388fe2;fill-opacity:1;fill-rule:evenodd;stroke:none;stroke-width:0;stroke-linecap:round;stroke-miterlimit:4;stroke-dasharray:none"
         d="m 56.0896,0 -5.319573,5.0002117 h 7.364926 L 63.454523,0 Z"
         id="path1144" />
      <path
         style="opacity:1;fill:#d6464f;fill-opacity:1;fill-rule:evenodd;stroke:none;stroke-width:0;stroke-linecap:round;stroke-miterlimit:4;stroke-dasharray:none"
         d="M 42.096139,0 36.776567,5.0002117 H 44.14149 L 49.461062,0 Z"
         id="path1142" />
      <path
         style="opacity:1;fill:#388fe2;fill-opacity:1;fill-rule:evenodd;stroke:none;stroke-width:0;stroke-linecap:round;stroke-miterlimit:4;stroke-dasharray:none"
         d="M 28.102676,0 22.783105,5.0002117 H 30.14803 L 35.467602,0 Z"
         id="path1140" />
      <path
         style="opacity:1;fill:#d6464f;fill-opacity:1;fill-rule:evenodd;stroke:none;stroke-width:0;stroke-linecap:round;stroke-miterlimit:4;stroke-dasharray:none"
         d="M 14.108699,0 8.7891275,5.0002117 H 16.154053 L 21.473624,0 Z"
         id="path1138" />
      <path
         style="opacity:1;fill:#388fe2;fill-opacity:1;fill-rule:evenodd;stroke:none;stroke-width:0;stroke-linecap:round;stroke-miterlimit:4;stroke-dasharray:none"
         d="M 0.11523848,0 0,0.1085205 V 7.0310954 L 7.4801634,0 Z"
         id="path836" />
    </g>
    <g
       id="g1015"
       transform="translate(-0.05666637,1.9500008)">
      <rect
         ry="2"
         rx="1.9999999"
         y="13.049999"
         x="15.056666"
         height="12"
         width="30"
         id="rect937"
         style="display:inline;fill:#388fe2;fill-opacity:1;fill-rule:evenodd;stroke:none;stroke-width:0;stroke-linecap:round;stroke-miterlimit:4;stroke-dasharray:none" />
      <text
         id="text929"
         y="18.093502"
         x="19.886303"
         style="font-style:normal;font-variant:normal;font-weight:600;font-stretch:normal;font-size:3.88056px;line-height:1.2;font-family:'Open Sans';-inkscape-font-specification:'Open Sans, Semi-Bold';font-variant-ligatures:normal;font-variant-caps:normal;font-variant-numeric:normal;font-variant-east-asian:normal;letter-spacing:0px;word-spacing:0px;display:inline;fill:#ffffff;stroke-width:0.264583"
         xml:space="preserve"><tspan
           y="18.093502"
           x="19.886303"
           id="tspan163"
           sodipodi:role="line">AIR MAIL</tspan><tspan
           y="22.750174"
           x="19.886303"
           id="tspan165"
           sodipodi:role="line">PAR AVION</tspan></text>
    </g>
    <g
       id="g1013"
       transform="matrix(1,0,0,-1,0,198.00026)">
      <path
         id="path925"
         d="m 193.97575,93.999946 -5.31957,5.000209 h 7.36493 l 5.31957,-5.000209 z"
         style="opacity:1;fill:#d6464f;fill-opacity:1;fill-rule:evenodd;stroke:none;stroke-width:0;stroke-linecap:round;stroke-miterlimit:4;stroke-dasharray:none" />
      <path
         id="path927"
         d="m 179.98229,93.999946 -5.31957,5.000209 h 7.36493 l 5.31957,-5.000209 z"
         style="opacity:1;fill:#388fe2;fill-opacity:1;fill-rule:evenodd;stroke:none;stroke-width:0;stroke-linecap:round;stroke-miterlimit:4;stroke-dasharray:none" />
      <path
         id="path929"
         d="m 165.98883,93.999946 -5.31957,5.000209 h 7.36492 l 5.31958,-5.000209 z"
         style="opacity:1;fill:#d6464f;fill-opacity:1;fill-rule:evenodd;stroke:none;stroke-width:0;stroke-linecap:round;stroke-miterlimit:4;stroke-dasharray:none" />
      <path
         id="path931"
         d="m 151.99485,93.999946 -5.31957,5.000209 h 7.36544 l 5.31958,-5.000209 z"
         style="opacity:1;fill:#388fe2;fill-opacity:1;fill-rule:evenodd;stroke:none;stroke-width:0;stroke-linecap:round;stroke-miterlimit:4;stroke-dasharray:none" />
      <path
         id="path933"
         d="m 138.00139,93.999946 -5.31957,5.000209 h 7.36493 l 5.31957,-5.000209 z"
         style="opacity:1;fill:#d6464f;fill-opacity:1;fill-rule:evenodd;stroke:none;stroke-width:0;stroke-linecap:round;stroke-miterlimit:4;stroke-dasharray:none" />
      <path
         id="path935"
         d="m 124.00793,93.999946 -5.31957,5.000209 h 7.36493 l 5.31957,-5.000209 z"
         style="opacity:1;fill:#388fe2;fill-opacity:1;fill-rule:evenodd;stroke:none;stroke-width:0;stroke-linecap:round;stroke-miterlimit:4;stroke-dasharray:none" />
      <path
         id="path937"
         d="m 110.01447,93.999946 -5.31957,5.000209 h 7.36492 l 5.31958,-5.000209 z"
         style="opacity:1;fill:#d6464f;fill-opacity:1;fill-rule:evenodd;stroke:none;stroke-width:0;stroke-linecap:round;stroke-miterlimit:4;stroke-dasharray:none" />
      <path
         id="path939"
         d="m 96.020495,93.999946 -5.319573,5.000209 h 7.364926 l 5.319572,-5.000209 z"
         style="opacity:1;fill:#388fe2;fill-opacity:1;fill-rule:evenodd;stroke:none;stroke-width:0;stroke-linecap:round;stroke-miterlimit:4;stroke-dasharray:none" />
      <path
         id="path941"
         d="m 82.027034,93.999946 -5.319572,5.000209 h 7.364926 l 5.319572,-5.000209 z"
         style="opacity:1;fill:#d6464f;fill-opacity:1;fill-rule:evenodd;stroke:none;stroke-width:0;stroke-linecap:round;stroke-miterlimit:4;stroke-dasharray:none" />
      <path
         id="path943"
         d="m 68.033574,93.999946 -5.319572,5.000209 h 7.364923 l 5.319572,-5.000209 z"
         style="opacity:1;fill:#388fe2;fill-opacity:1;fill-rule:evenodd;stroke:none;stroke-width:0;stroke-linecap:round;stroke-miterlimit:4;stroke-dasharray:none" />
      <path
         id="path945"
         d="m 54.040111,93.999946 -5.319573,5.000209 h 7.364926 l 5.319572,-5.000209 z"
         style="opacity:1;fill:#d6464f;fill-opacity:1;fill-rule:evenodd;stroke:none;stroke-width:0;stroke-linecap:round;stroke-miterlimit:4;stroke-dasharray:none" />
      <path
         id="path947"
         d="m 40.046134,93.999946 -5.319572,5.000209 h 7.364926 l 5.319572,-5.000209 z"
         style="opacity:1;fill:#388fe2;fill-opacity:1;fill-rule:evenodd;stroke:none;stroke-width:0;stroke-linecap:round;stroke-miterlimit:4;stroke-dasharray:none" />
      <path
         id="path949"
         d="m 26.052673,93.999946 -5.319572,5.000209 h 7.364926 l 5.31957,-5.000209 z"
         style="opacity:1;fill:#d6464f;fill-opacity:1;fill-rule:evenodd;stroke:none;stroke-width:0;stroke-linecap:round;stroke-miterlimit:4;stroke-dasharray:none" />
      <path
         id="path951"
         d="m 12.059212,93.999946 -5.3195718,5.000209 h 7.3649248 l 5.319572,-5.000209 z"
         style="opacity:1;fill:#388fe2;fill-opacity:1;fill-rule:evenodd;stroke:none;stroke-width:0;stroke-linecap:round;stroke-miterlimit:4;stroke-dasharray:none" />
      <path
         id="path953"
         d="m 210.0001,92.091535 -7.34994,6.90862 h 7.34994 z"
         style="opacity:1;fill:#388fe2;fill-opacity:1;fill-rule:evenodd;stroke:none;stroke-width:0;stroke-linecap:round;stroke-miterlimit:4;stroke-dasharray:none" />
      <path
         d="M 5.0003976,87.481583 1.8599614e-4,92.181554 v 6.818711 H 0.11129033 L 5.0019478,94.403126 v -0.403077 h -0.00155 z"
         style="opacity:1;fill:#d6464f;fill-opacity:1;fill-rule:evenodd;stroke:none;stroke-width:0;stroke-linecap:round;stroke-miterlimit:4;stroke-dasharray:none"
         id="path955" />
      <path
         id="path957"
         d="m 210.0001,78.938333 -5.00021,4.699971 v 6.922574 l 5.00021,-4.699971 z"
         style="opacity:1;fill:#d6464f;fill-opacity:1;fill-rule:evenodd;stroke:none;stroke-width:0;stroke-linecap:round;stroke-miterlimit:4;stroke-dasharray:none" />
      <path
         id="path959"
         d="M 5.0002117,74.328278 0,79.028249 v 6.923093 l 5.0002117,-4.699971 z"
         style="opacity:1;fill:#388fe2;fill-opacity:1;fill-rule:evenodd;stroke:none;stroke-width:0;stroke-linecap:round;stroke-miterlimit:4;stroke-dasharray:none" />
      <path
         id="path961"
         d="m 210.0001,65.784615 -5.00021,4.699971 v 6.92309 l 5.00021,-4.699971 z"
         style="opacity:1;fill:#388fe2;fill-opacity:1;fill-rule:evenodd;stroke:none;stroke-width:0;stroke-linecap:round;stroke-miterlimit:4;stroke-dasharray:none" />
      <path
         id="path963"
         d="M 5.0002117,61.175076 0,65.875047 v 6.922574 L 5.0002117,68.09765 Z"
         style="opacity:1;fill:#d6464f;fill-opacity:1;fill-rule:evenodd;stroke:none;stroke-width:0;stroke-linecap:round;stroke-miterlimit:4;stroke-dasharray:none" />
      <path
         id="path965"
         d="m 210.0001,52.631413 -5.00021,4.699971 v 6.922575 l 5.00021,-4.699971 z"
         style="opacity:1;fill:#d6464f;fill-opacity:1;fill-rule:evenodd;stroke:none;stroke-width:0;stroke-linecap:round;stroke-miterlimit:4;stroke-dasharray:none" />
      <path
         id="path967"
         d="M 5.0002117,48.021874 0,52.721845 v 6.922574 l 5.0002117,-4.69997 z"
         style="opacity:1;fill:#388fe2;fill-opacity:1;fill-rule:evenodd;stroke:none;stroke-width:0;stroke-linecap:round;stroke-miterlimit:4;stroke-dasharray:none" />
      <path
         id="path969"
         d="m 210.0001,39.478209 -5.00021,4.699973 v 6.922575 l 5.00021,-4.699971 z"
         style="opacity:1;fill:#388fe2;fill-opacity:1;fill-rule:evenodd;stroke:none;stroke-width:0;stroke-linecap:round;stroke-miterlimit:4;stroke-dasharray:none" />
      <path
         id="path971"
         d="M 5.0002117,34.868672 0,39.568643 v 6.922574 l 5.0002117,-4.69997 z"
         style="opacity:1;fill:#d6464f;fill-opacity:1;fill-rule:evenodd;stroke:none;stroke-width:0;stroke-linecap:round;stroke-miterlimit:4;stroke-dasharray:none" />
      <path
         id="path973"
         d="m 210.0001,26.325008 -5.00021,4.699972 v 6.922575 l 5.00021,-4.699971 z"
         style="opacity:1;fill:#d6464f;fill-opacity:1;fill-rule:evenodd;stroke:none;stroke-width:0;stroke-linecap:round;stroke-miterlimit:4;stroke-dasharray:none" />
      <path
         id="path975"
         d="M 5.0002117,21.71547 0,26.415442 v 6.922574 l 5.0002117,-4.699971 z"
         style="opacity:1;fill:#388fe2;fill-opacity:1;fill-rule:evenodd;stroke:none;stroke-width:0;stroke-linecap:round;stroke-miterlimit:4;stroke-dasharray:none" />
      <path
         id="path977"
         d="m 210.0001,13.171289 -5.00021,4.699971 v 6.922575 l 5.00021,-4.699971 z"
         style="opacity:1;fill:#388fe2;fill-opacity:1;fill-rule:evenodd;stroke:none;stroke-width:0;stroke-linecap:round;stroke-miterlimit:4;stroke-dasharray:none" />
      <path
         id="path979"
         d="M 5.0002117,8.561751 0,13.261723 v 6.922574 l 5.0002117,-4.699971 z"
         style="opacity:1;fill:#d6464f;fill-opacity:1;fill-rule:evenodd;stroke:none;stroke-width:0;stroke-linecap:round;stroke-miterlimit:4;stroke-dasharray:none" />
      <path
         d="m 210.00029,0.0181901 -5.00125,4.7010049 v 0.2811198 h 0.001 v 6.6404212 l 5.00022,-4.6999713 z"
         style="opacity:1;fill:#d6464f;fill-opacity:1;fill-rule:evenodd;stroke:none;stroke-width:0;stroke-linecap:round;stroke-miterlimit:4;stroke-dasharray:none"
         id="path981" />
      <path
         id="path983"
         d="m 196.02576,0 -5.31957,5.0002117 h 7.36492 L 203.39068,0 Z"
         style="opacity:1;fill:#388fe2;fill-opacity:1;fill-rule:evenodd;stroke:none;stroke-width:0;stroke-linecap:round;stroke-miterlimit:4;stroke-dasharray:none" />
      <path
         id="path985"
         d="m 182.0323,0 -5.31958,5.0002117 h 7.36493 L 189.39722,0 Z"
         style="opacity:1;fill:#d6464f;fill-opacity:1;fill-rule:evenodd;stroke:none;stroke-width:0;stroke-linecap:round;stroke-miterlimit:4;stroke-dasharray:none" />
      <path
         id="path987"
         d="m 168.03832,0 -5.31957,5.0002117 h 7.36492 L 175.40325,0 Z"
         style="opacity:1;fill:#388fe2;fill-opacity:1;fill-rule:evenodd;stroke:none;stroke-width:0;stroke-linecap:round;stroke-miterlimit:4;stroke-dasharray:none" />
      <path
         id="path989"
         d="m 154.04486,0 -5.31957,5.0002117 h 7.36492 L 161.40978,0 Z"
         style="opacity:1;fill:#d6464f;fill-opacity:1;fill-rule:evenodd;stroke:none;stroke-width:0;stroke-linecap:round;stroke-miterlimit:4;stroke-dasharray:none" />
      <path
         id="path991"
         d="m 140.0514,0 -5.31957,5.0002117 h 7.36492 L 147.41632,0 Z"
         style="opacity:1;fill:#388fe2;fill-opacity:1;fill-rule:evenodd;stroke:none;stroke-width:0;stroke-linecap:round;stroke-miterlimit:4;stroke-dasharray:none" />
      <path
         id="path993"
         d="m 126.05742,0 -5.31957,5.0002117 h 7.36544 L 133.42286,0 Z"
         style="opacity:1;fill:#d6464f;fill-opacity:1;fill-rule:evenodd;stroke:none;stroke-width:0;stroke-linecap:round;stroke-miterlimit:4;stroke-dasharray:none" />
      <path
         id="path995"
         d="m 112.06396,0 -5.31957,5.0002117 h 7.36492 L 119.42889,0 Z"
         style="opacity:1;fill:#388fe2;fill-opacity:1;fill-rule:evenodd;stroke:none;stroke-width:0;stroke-linecap:round;stroke-miterlimit:4;stroke-dasharray:none" />
      <path
         id="path997"
         d="m 98.070499,0 -5.319572,5.0002117 h 7.364923 L 105.43542,0 Z"
         style="opacity:1;fill:#d6464f;fill-opacity:1;fill-rule:evenodd;stroke:none;stroke-width:0;stroke-linecap:round;stroke-miterlimit:4;stroke-dasharray:none" />
      <path
         id="path999"
         d="M 84.077036,0 78.757467,5.0002117 H 86.12239 L 91.441962,0 Z"
         style="opacity:1;fill:#388fe2;fill-opacity:1;fill-rule:evenodd;stroke:none;stroke-width:0;stroke-linecap:round;stroke-miterlimit:4;stroke-dasharray:none" />
      <path
         id="path1001"
         d="m 70.08306,0 -5.319572,5.0002117 h 7.364926 L 77.447986,0 Z"
         style="opacity:1;fill:#d6464f;fill-opacity:1;fill-rule:evenodd;stroke:none;stroke-width:0;stroke-linecap:round;stroke-miterlimit:4;stroke-dasharray:none" />
      <path
         id="path1003"
         d="m 56.0896,0 -5.319573,5.0002117 h 7.364926 L 63.454523,0 Z"
         style="opacity:1;fill:#388fe2;fill-opacity:1;fill-rule:evenodd;stroke:none;stroke-width:0;stroke-linecap:round;stroke-miterlimit:4;stroke-dasharray:none" />
      <path
         id="path1005"
         d="M 42.096139,0 36.776567,5.0002117 H 44.14149 L 49.461062,0 Z"
         style="opacity:1;fill:#d6464f;fill-opacity:1;fill-rule:evenodd;stroke:none;stroke-width:0;stroke-linecap:round;stroke-miterlimit:4;stroke-dasharray:none" />
      <path
         id="path1007"
         d="M 28.102676,0 22.783105,5.0002117 H 30.14803 L 35.467602,0 Z"
         style="opacity:1;fill:#388fe2;fill-opacity:1;fill-rule:evenodd;stroke:none;stroke-width:0;stroke-linecap:round;stroke-miterlimit:4;stroke-dasharray:none" />
      <path
         id="path1009"
         d="M 14.108699,0 8.7891275,5.0002117 H 16.154053 L 21.473624,0 Z"
         style="opacity:1;fill:#d6464f;fill-opacity:1;fill-rule:evenodd;stroke:none;stroke-width:0;stroke-linecap:round;stroke-miterlimit:4;stroke-dasharray:none" />
      <path
         id="path1011"
         d="M 0.11523848,0 0,0.1085205 V 7.0310954 L 7.4801634,0 Z"
         style="opacity:1;fill:#388fe2;fill-opacity:1;fill-rule:evenodd;stroke:none;stroke-width:0;stroke-linecap:round;stroke-miterlimit:4;stroke-dasharray:none" />
    </g>
  </g>
  <g
     transform="translate(0.31537838)"
     sodipodi:insensitive="true"
     style="display:inline"
     inkscape:label="Address"
     id="layer4"
     inkscape:groupmode="layer">
    <text
       xml:space="preserve"
       style="font-style:normal;font-variant:normal;font-weight:normal;font-stretch:normal;font-size:3.88056px;line-height:1.2;font-family:'Special Elite';-inkscape-font-specification:'Special Elite, Normal';font-variant-ligatures:normal;font-variant-caps:normal;font-variant-numeric:normal;font-variant-east-asian:normal;letter-spacing:0px;word-spacing:0px;stroke-width:0.264583"
       x="94.286301"
       y="60.38084"
       id="text914"><tspan
         y="60.38084"
         x="94.286301"
         id="tspan1376"
         sodipodi:role="line">Mrs. Anne Boleyn</tspan><tspan
         y="65.037514"
         x="94.286301"
         id="tspan1378"
         sodipodi:role="line">Tower Bridge Rd</tspan><tspan
         y="69.694183"
         x="94.286301"
         id="tspan1380"
         sodipodi:role="line">London SE1 2UP</tspan><tspan
         y="74.350853"
         x="94.286301"
         id="tspan1382"
         sodipodi:role="line">UNITED KINGDOM</tspan></text>
    <text
       transform="scale(-1)"
       id="text1033"
       y="-182.03242"
       x="-129.04524"
       style="font-style:normal;font-variant:normal;font-weight:normal;font-stretch:normal;font-size:3.88056px;line-height:1.2;font-family:'Special Elite';-inkscape-font-specification:'Special Elite, Normal';font-variant-ligatures:normal;font-variant-caps:normal;font-variant-numeric:normal;font-variant-east-asian:normal;letter-spacing:0px;word-spacing:0px;stroke-width:0.264583"
       xml:space="preserve"><tspan
         y="-182.03242"
         x="-129.04524"
         id="tspan1348"
         sodipodi:role="line">Gustave Eiffel</tspan><tspan
         y="-177.37575"
         x="-129.04524"
         id="tspan1350"
         sodipodi:role="line">5 Avenue Anatole France</tspan><tspan
         y="-172.71909"
         x="-129.04524"
         id="tspan1352"
         sodipodi:role="line">75007 Paris</tspan><tspan
         y="-168.06241"
         x="-129.04524"
         id="tspan1354"
         sodipodi:role="line">FRANCE</tspan></text>
  </g>
  <g
     transform="translate(0.31537838)"
     inkscape:label="Postal Stamp"
     id="layer2"
     inkscape:groupmode="layer"
     sodipodi:insensitive="true">
    <path
       d="m 199.67003,10.806458 a 0.50000001,0.50000001 0 0 1 -0.14521,0.02119 0.50000001,0.50000001 0 0 1 -0.50023,-0.497644 h -0.76481 a 0.50000001,0.50000001 0 0 1 -0.49971,0.497642 0.50000001,0.50000001 0 0 1 -0.50023,-0.497645 h -0.76481 a 0.50000001,0.50000001 0 0 1 -0.50023,0.497645 0.50000001,0.50000001 0 0 1 -0.50023,-0.497645 h -0.76481 a 0.50000001,0.50000001 0 0 1 -0.49971,0.497645 0.50000001,0.50000001 0 0 1 -0.50023,-0.497645 h -0.76481 a 0.50000001,0.50000001 0 0 1 -0.50023,0.497645 0.50000001,0.50000001 0 0 1 -0.49971,-0.497645 h -0.76533 a 0.50000001,0.50000001 0 0 1 -0.49971,0.497645 0.50000001,0.50000001 0 0 1 -0.50022,-0.497645 h -0.76482 a 0.50000001,0.50000001 0 0 1 -0.50022,0.497645 0.50000001,0.50000001 0 0 1 -0.49971,-0.497645 h -0.76533 a 0.50000001,0.50000001 0 0 1 -0.49971,0.497645 0.50000001,0.50000001 0 0 1 -0.50023,-0.497645 h -0.76481 a 0.50000001,0.50000001 0 0 1 -0.50023,0.497645 0.50000001,0.50000001 0 0 1 -0.49971,-0.497645 h -0.76533 a 0.50000001,0.50000001 0 0 1 -0.49971,0.497645 0.50000001,0.50000001 0 0 1 -0.50023,-0.497645 h -0.76481 a 0.50000001,0.50000001 0 0 1 -0.50023,0.497645 0.50000001,0.50000001 0 0 1 -0.49971,-0.497645 h -0.76533 a 0.50000001,0.50000001 0 0 1 -0.49971,0.497645 0.50000001,0.50000001 0 0 1 -0.50023,-0.497645 h -0.76481 a 0.50000001,0.50000001 0 0 1 -0.50022,0.497645 0.50000001,0.50000001 0 0 1 -0.49971,-0.497645 h -0.76533 a 0.50000001,0.50000001 0 0 1 -0.49971,0.497645 0.50000001,0.50000001 0 0 1 -0.50023,-0.497645 h -0.76481 a 0.50000001,0.50000001 0 0 1 -0.50023,0.497645 0.50000001,0.50000001 0 0 1 -0.1447,-0.02119 v 0.807703 a 0.50000001,0.50000001 0 0 1 0.1447,-0.0217 0.50000001,0.50000001 0 0 1 0.50023,0.499711 0.50000001,0.50000001 0 0 1 -0.50023,0.500228 0.50000001,0.50000001 0 0 1 -0.1447,-0.02119 v 0.807703 a 0.50000001,0.50000001 0 0 1 0.1447,-0.0217 0.50000001,0.50000001 0 0 1 0.50023,0.500228 0.50000001,0.50000001 0 0 1 -0.50023,0.500228 0.50000001,0.50000001 0 0 1 -0.1447,-0.02119 v 0.807703 a 0.50000001,0.50000001 0 0 1 0.1447,-0.0217 0.50000001,0.50000001 0 0 1 0.50023,0.499711 0.50000001,0.50000001 0 0 1 -0.50023,0.500228 0.50000001,0.50000001 0 0 1 -0.1447,-0.02119 v 0.807703 a 0.50000001,0.50000001 0 0 1 0.1447,-0.0217 0.50000001,0.50000001 0 0 1 0.50023,0.500228 0.50000001,0.50000001 0 0 1 -0.50023,0.499711 0.50000001,0.50000001 0 0 1 -0.1447,-0.0217 v 0.808736 a 0.50000001,0.50000001 0 0 1 0.1447,-0.0217 0.50000001,0.50000001 0 0 1 0.50023,0.499711 0.50000001,0.50000001 0 0 1 -0.50023,0.500228 0.50000001,0.50000001 0 0 1 -0.1447,-0.02119 v 0.807702 a 0.50000001,0.50000001 0 0 1 0.1447,-0.0217 0.50000001,0.50000001 0 0 1 0.50023,0.500228 0.50000001,0.50000001 0 0 1 -0.50023,0.499711 0.50000001,0.50000001 0 0 1 -0.1447,-0.0217 v 0.808736 a 0.50000001,0.50000001 0 0 1 0.1447,-0.0217 0.50000001,0.50000001 0 0 1 0.50023,0.499711 0.50000001,0.50000001 0 0 1 -0.50023,0.500223 0.50000001,0.50000001 0 0 1 -0.1447,-0.02119 v 0.807703 a 0.50000001,0.50000001 0 0 1 0.1447,-0.0217 0.50000001,0.50000001 0 0 1 0.50023,0.500227 0.50000001,0.50000001 0 0 1 -0.50023,0.499708 0.50000001,0.50000001 0 0 1 -0.1447,-0.02171 v 0.808737 a 0.50000001,0.50000001 0 0 1 0.1447,-0.0217 0.50000001,0.50000001 0 0 1 0.50023,0.499712 0.50000001,0.50000001 0 0 1 -0.50023,0.500222 0.50000001,0.50000001 0 0 1 -0.1447,-0.02119 v 0.807703 a 0.50000001,0.50000001 0 0 1 0.1447,-0.0217 0.50000001,0.50000001 0 0 1 0.50023,0.500228 0.50000001,0.50000001 0 0 1 -0.50023,0.499707 0.50000001,0.50000001 0 0 1 -0.1447,-0.02171 v 0.808737 a 0.50000001,0.50000001 0 0 1 0.1447,-0.0217 0.50000001,0.50000001 0 0 1 0.50023,0.499711 0.50000001,0.50000001 0 0 1 -0.50023,0.500224 0.50000001,0.50000001 0 0 1 -0.1447,-0.02119 v 0.807703 a 0.50000001,0.50000001 0 0 1 0.1447,-0.0217 0.50000001,0.50000001 0 0 1 0.50023,0.500228 0.50000001,0.50000001 0 0 1 -0.50023,0.499707 0.50000001,0.50000001 0 0 1 -0.1447,-0.0217 v 0.808737 a 0.50000001,0.50000001 0 0 1 0.1447,-0.0217 0.50000001,0.50000001 0 0 1 0.50023,0.499711 0.50000001,0.50000001 0 0 1 -0.50023,0.500223 0.50000001,0.50000001 0 0 1 -0.1447,-0.02119 v 0.80769 a 0.50000001,0.50000001 0 0 1 0.1447,-0.0217 0.50000001,0.50000001 0 0 1 0.50023,0.500227 0.50000001,0.50000001 0 0 1 -0.50023,0.499708 0.50000001,0.50000001 0 0 1 -0.1447,-0.02171 v 0.808737 a 0.50000001,0.50000001 0 0 1 0.1447,-0.0217 0.50000001,0.50000001 0 0 1 0.50023,0.49971 0.50000001,0.50000001 0 0 1 -0.50023,0.500224 0.50000001,0.50000001 0 0 1 -0.1447,-0.02119 v 0.807704 a 0.50000001,0.50000001 0 0 1 0.1447,-0.02171 0.50000001,0.50000001 0 0 1 0.50023,0.500229 0.50000001,0.50000001 0 0 1 -0.50023,0.49971 0.50000001,0.50000001 0 0 1 -0.1447,-0.0217 v 0.808736 a 0.50000001,0.50000001 0 0 1 0.1447,-0.0217 0.50000001,0.50000001 0 0 1 0.0305,5.17e-4 0.50000001,0.50000001 0 0 1 0.46974,0.497127 h 0.76481 a 0.50000001,0.50000001 0 0 1 0.50023,-0.497648 0.50000001,0.50000001 0 0 1 0.49971,0.497644 h 0.76533 a 0.50000001,0.50000001 0 0 1 0.49971,-0.497644 0.50000001,0.50000001 0 0 1 0.50022,0.497644 h 0.76482 a 0.50000001,0.50000001 0 0 1 0.50022,-0.497644 0.50000001,0.50000001 0 0 1 0.49971,0.497644 h 0.76533 a 0.50000001,0.50000001 0 0 1 0.49971,-0.497644 0.50000001,0.50000001 0 0 1 0.50023,0.497644 h 0.76481 a 0.50000001,0.50000001 0 0 1 0.50023,-0.497644 0.50000001,0.50000001 0 0 1 0.49971,0.497644 h 0.76533 a 0.50000001,0.50000001 0 0 1 0.49971,-0.497644 0.50000001,0.50000001 0 0 1 0.50023,0.497644 h 0.76481 a 0.50000001,0.50000001 0 0 1 0.50023,-0.497644 0.50000001,0.50000001 0 0 1 0.49971,0.497644 h 0.76533 a 0.50000001,0.50000001 0 0 1 0.49971,-0.497644 0.50000001,0.50000001 0 0 1 0.50023,0.497644 h 0.76481 a 0.50000001,0.50000001 0 0 1 0.50023,-0.497644 0.50000001,0.50000001 0 0 1 0.49971,0.497644 h 0.76532 a 0.50000001,0.50000001 0 0 1 0.49971,-0.497644 0.50000001,0.50000001 0 0 1 0.50023,0.497644 h 0.76481 a 0.50000001,0.50000001 0 0 1 0.50023,-0.497644 0.50000001,0.50000001 0 0 1 0.49971,0.497644 h 0.76481 a 0.50000001,0.50000001 0 0 1 0.50023,-0.497644 0.50000001,0.50000001 0 0 1 0.50023,0.497644 h 0.76481 a 0.50000001,0.50000001 0 0 1 0.50023,-0.497644 0.50000001,0.50000001 0 0 1 0.49971,0.497644 h 0.76481 a 0.50000001,0.50000001 0 0 1 0.001,-0.02842 0.50000001,0.50000001 0 0 1 0.49919,-0.469221 0.50000001,0.50000001 0 0 1 0.0305,5.15e-4 0.50000001,0.50000001 0 0 1 0.11473,0.02067 v -0.807705 a 0.50000001,0.50000001 0 0 1 -0.14522,0.02119 0.50000001,0.50000001 0 0 1 -0.50022,-0.49971 0.50000001,0.50000001 0 0 1 0.50022,-0.500229 0.50000001,0.50000001 0 0 1 0.14522,0.02171 V 37.2808 a 0.50000001,0.50000001 0 0 1 -0.14522,0.0217 0.50000001,0.50000001 0 0 1 -0.50022,-0.500229 0.50000001,0.50000001 0 0 1 0.50022,-0.499711 0.50000001,0.50000001 0 0 1 0.14522,0.02171 v -0.80822 a 0.50000001,0.50000001 0 0 1 -0.14522,0.02119 0.50000001,0.50000001 0 0 1 -0.50022,-0.499712 0.50000001,0.50000001 0 0 1 0.50022,-0.500227 0.50000001,0.50000001 0 0 1 0.14522,0.0217 v -0.807703 a 0.50000001,0.50000001 0 0 1 -0.14522,0.02119 0.50000001,0.50000001 0 0 1 -0.50022,-0.500227 0.50000001,0.50000001 0 0 1 0.50022,-0.499711 0.50000001,0.50000001 0 0 1 0.14522,0.0217 v -0.80822 a 0.50000001,0.50000001 0 0 1 -0.14522,0.02119 0.50000001,0.50000001 0 0 1 -0.50022,-0.499711 0.50000001,0.50000001 0 0 1 0.50022,-0.500228 0.50000001,0.50000001 0 0 1 0.14522,0.0217 v -0.807703 a 0.50000001,0.50000001 0 0 1 -0.14522,0.02119 0.50000001,0.50000001 0 0 1 -0.50022,-0.500228 0.50000001,0.50000001 0 0 1 0.50022,-0.499711 0.50000001,0.50000001 0 0 1 0.14522,0.0217 v -0.80822 a 0.50000001,0.50000001 0 0 1 -0.14522,0.02119 0.50000001,0.50000001 0 0 1 -0.50022,-0.499711 0.50000001,0.50000001 0 0 1 0.50022,-0.500228 0.50000001,0.50000001 0 0 1 0.14522,0.0217 v -0.807703 a 0.50000001,0.50000001 0 0 1 -0.14522,0.02119 0.50000001,0.50000001 0 0 1 -0.50022,-0.500227 0.50000001,0.50000001 0 0 1 0.50022,-0.499712 0.50000001,0.50000001 0 0 1 0.14522,0.0217 v -0.80822 a 0.50000001,0.50000001 0 0 1 -0.14522,0.02119 0.50000001,0.50000001 0 0 1 -0.50022,-0.499713 0.50000001,0.50000001 0 0 1 0.50022,-0.500227 0.50000001,0.50000001 0 0 1 0.14522,0.0217 v -0.807703 a 0.50000001,0.50000001 0 0 1 -0.14522,0.02119 0.50000001,0.50000001 0 0 1 -0.50022,-0.500227 0.50000001,0.50000001 0 0 1 0.50022,-0.499711 0.50000001,0.50000001 0 0 1 0.14522,0.0217 v -0.808201 a 0.50000001,0.50000001 0 0 1 -0.14522,0.02119 0.50000001,0.50000001 0 0 1 -0.50022,-0.499711 0.50000001,0.50000001 0 0 1 0.50022,-0.500228 0.50000001,0.50000001 0 0 1 0.14522,0.0217 V 19.63124 a 0.50000001,0.50000001 0 0 1 -0.14522,0.02119 0.50000001,0.50000001 0 0 1 -0.50022,-0.500228 0.50000001,0.50000001 0 0 1 0.50022,-0.499711 0.50000001,0.50000001 0 0 1 0.14522,0.0217 v -0.808219 a 0.50000001,0.50000001 0 0 1 -0.14522,0.02119 0.50000001,0.50000001 0 0 1 -0.50022,-0.499711 0.50000001,0.50000001 0 0 1 0.50022,-0.500228 0.50000001,0.50000001 0 0 1 0.14522,0.0217 V 16.10122 a 0.50000001,0.50000001 0 0 1 -0.14522,0.02119 0.50000001,0.50000001 0 0 1 -0.50022,-0.500227 0.50000001,0.50000001 0 0 1 0.50022,-0.499712 0.50000001,0.50000001 0 0 1 0.14522,0.0217 v -0.807702 a 0.50000001,0.50000001 0 0 1 -0.14522,0.02119 0.50000001,0.50000001 0 0 1 -0.50022,-0.500228 0.50000001,0.50000001 0 0 1 0.50022,-0.500228 0.50000001,0.50000001 0 0 1 0.14522,0.0217 v -0.807702 a 0.50000001,0.50000001 0 0 1 -0.14522,0.02119 0.50000001,0.50000001 0 0 1 -0.50022,-0.500228 0.50000001,0.50000001 0 0 1 0.50022,-0.499711 0.50000001,0.50000001 0 0 1 0.14522,0.0217 z"
       style="fill:#000000;fill-opacity:1;fill-rule:evenodd;stroke-width:0;stroke-linecap:round;filter:url(#filter853)"
       id="path839" />
    <path
       id="rect833"
       style="fill:#fafaf5;fill-opacity:1;fill-rule:evenodd;stroke-width:0;stroke-linecap:round"
       d="m 199.77003,10.706458 a 0.50000001,0.50000001 0 0 1 -0.14521,0.02119 0.50000001,0.50000001 0 0 1 -0.50023,-0.497644 h -0.76481 a 0.50000001,0.50000001 0 0 1 -0.49971,0.497642 0.50000001,0.50000001 0 0 1 -0.50023,-0.497645 h -0.76481 a 0.50000001,0.50000001 0 0 1 -0.50023,0.497645 0.50000001,0.50000001 0 0 1 -0.50023,-0.497645 h -0.76481 a 0.50000001,0.50000001 0 0 1 -0.49971,0.497645 0.50000001,0.50000001 0 0 1 -0.50023,-0.497645 h -0.76481 a 0.50000001,0.50000001 0 0 1 -0.50023,0.497645 0.50000001,0.50000001 0 0 1 -0.49971,-0.497645 h -0.76533 a 0.50000001,0.50000001 0 0 1 -0.49971,0.497645 0.50000001,0.50000001 0 0 1 -0.50022,-0.497645 h -0.76482 a 0.50000001,0.50000001 0 0 1 -0.50022,0.497645 0.50000001,0.50000001 0 0 1 -0.49971,-0.497645 h -0.76533 a 0.50000001,0.50000001 0 0 1 -0.49971,0.497645 0.50000001,0.50000001 0 0 1 -0.50023,-0.497645 h -0.76481 a 0.50000001,0.50000001 0 0 1 -0.50023,0.497645 0.50000001,0.50000001 0 0 1 -0.49971,-0.497645 h -0.76533 a 0.50000001,0.50000001 0 0 1 -0.49971,0.497645 0.50000001,0.50000001 0 0 1 -0.50023,-0.497645 h -0.76481 a 0.50000001,0.50000001 0 0 1 -0.50023,0.497645 0.50000001,0.50000001 0 0 1 -0.49971,-0.497645 h -0.76533 a 0.50000001,0.50000001 0 0 1 -0.49971,0.497645 0.50000001,0.50000001 0 0 1 -0.50023,-0.497645 h -0.76481 a 0.50000001,0.50000001 0 0 1 -0.50022,0.497645 0.50000001,0.50000001 0 0 1 -0.49972,-0.497645 h -0.76532 a 0.50000001,0.50000001 0 0 1 -0.49971,0.497645 0.50000001,0.50000001 0 0 1 -0.50023,-0.497645 h -0.76481 a 0.50000001,0.50000001 0 0 1 -0.50023,0.497645 0.50000001,0.50000001 0 0 1 -0.1447,-0.02119 v 0.807703 a 0.50000001,0.50000001 0 0 1 0.1447,-0.0217 0.50000001,0.50000001 0 0 1 0.50023,0.499711 0.50000001,0.50000001 0 0 1 -0.50023,0.500228 0.50000001,0.50000001 0 0 1 -0.1447,-0.02119 v 0.807703 a 0.50000001,0.50000001 0 0 1 0.1447,-0.0217 0.50000001,0.50000001 0 0 1 0.50023,0.500228 0.50000001,0.50000001 0 0 1 -0.50023,0.500228 0.50000001,0.50000001 0 0 1 -0.1447,-0.02119 v 0.807703 a 0.50000001,0.50000001 0 0 1 0.1447,-0.0217 0.50000001,0.50000001 0 0 1 0.50023,0.499711 0.50000001,0.50000001 0 0 1 -0.50023,0.500228 0.50000001,0.50000001 0 0 1 -0.1447,-0.02119 v 0.807703 a 0.50000001,0.50000001 0 0 1 0.1447,-0.0217 0.50000001,0.50000001 0 0 1 0.50023,0.500228 0.50000001,0.50000001 0 0 1 -0.50023,0.499711 0.50000001,0.50000001 0 0 1 -0.1447,-0.0217 v 0.808736 a 0.50000001,0.50000001 0 0 1 0.1447,-0.0217 0.50000001,0.50000001 0 0 1 0.50023,0.499712 0.50000001,0.50000001 0 0 1 -0.50023,0.500227 0.50000001,0.50000001 0 0 1 -0.1447,-0.02119 v 0.807702 a 0.50000001,0.50000001 0 0 1 0.1447,-0.0217 0.50000001,0.50000001 0 0 1 0.50023,0.500228 0.50000001,0.50000001 0 0 1 -0.50023,0.499711 0.50000001,0.50000001 0 0 1 -0.1447,-0.0217 v 0.808736 a 0.50000001,0.50000001 0 0 1 0.1447,-0.0217 0.50000001,0.50000001 0 0 1 0.50023,0.499711 0.50000001,0.50000001 0 0 1 -0.50023,0.500223 0.50000001,0.50000001 0 0 1 -0.1447,-0.02119 v 0.807704 a 0.50000001,0.50000001 0 0 1 0.1447,-0.0217 0.50000001,0.50000001 0 0 1 0.50023,0.500227 0.50000001,0.50000001 0 0 1 -0.50023,0.499708 0.50000001,0.50000001 0 0 1 -0.1447,-0.0217 v 0.808737 a 0.50000001,0.50000001 0 0 1 0.1447,-0.0217 0.50000001,0.50000001 0 0 1 0.50023,0.499712 0.50000001,0.50000001 0 0 1 -0.50023,0.500222 0.50000001,0.50000001 0 0 1 -0.1447,-0.02119 V 27.399 a 0.50000001,0.50000001 0 0 1 0.1447,-0.0217 0.50000001,0.50000001 0 0 1 0.50023,0.500228 0.50000001,0.50000001 0 0 1 -0.50023,0.499707 0.50000001,0.50000001 0 0 1 -0.1447,-0.0217 v 0.808737 a 0.50000001,0.50000001 0 0 1 0.1447,-0.0217 0.50000001,0.50000001 0 0 1 0.50023,0.499711 0.50000001,0.50000001 0 0 1 -0.50023,0.500224 0.50000001,0.50000001 0 0 1 -0.1447,-0.02119 v 0.807703 a 0.50000001,0.50000001 0 0 1 0.1447,-0.0217 0.50000001,0.50000001 0 0 1 0.50023,0.500228 0.50000001,0.50000001 0 0 1 -0.50023,0.499706 0.50000001,0.50000001 0 0 1 -0.1447,-0.0217 v 0.808737 a 0.50000001,0.50000001 0 0 1 0.1447,-0.0217 0.50000001,0.50000001 0 0 1 0.50023,0.499711 0.50000001,0.50000001 0 0 1 -0.50023,0.500223 0.50000001,0.50000001 0 0 1 -0.1447,-0.02119 v 0.80769 a 0.50000001,0.50000001 0 0 1 0.1447,-0.0217 0.50000001,0.50000001 0 0 1 0.50023,0.500228 0.50000001,0.50000001 0 0 1 -0.50023,0.499707 0.50000001,0.50000001 0 0 1 -0.1447,-0.02171 v 0.808737 a 0.50000001,0.50000001 0 0 1 0.1447,-0.0217 0.50000001,0.50000001 0 0 1 0.50023,0.499712 0.50000001,0.50000001 0 0 1 -0.50023,0.500224 0.50000001,0.50000001 0 0 1 -0.1447,-0.02119 v 0.807704 a 0.50000001,0.50000001 0 0 1 0.1447,-0.02169 0.50000001,0.50000001 0 0 1 0.50023,0.500229 0.50000001,0.50000001 0 0 1 -0.50023,0.49971 0.50000001,0.50000001 0 0 1 -0.1447,-0.0217 v 0.808736 a 0.50000001,0.50000001 0 0 1 0.1447,-0.0217 0.50000001,0.50000001 0 0 1 0.0305,5.29e-4 0.50000001,0.50000001 0 0 1 0.46974,0.497128 h 0.76481 a 0.50000001,0.50000001 0 0 1 0.50023,-0.497647 0.50000001,0.50000001 0 0 1 0.49971,0.497644 h 0.76533 a 0.50000001,0.50000001 0 0 1 0.49971,-0.497644 0.50000001,0.50000001 0 0 1 0.50023,0.497644 h 0.76481 a 0.50000001,0.50000001 0 0 1 0.50022,-0.497644 0.50000001,0.50000001 0 0 1 0.49971,0.497644 h 0.76533 a 0.50000001,0.50000001 0 0 1 0.49971,-0.497644 0.50000001,0.50000001 0 0 1 0.50023,0.497644 h 0.76481 a 0.50000001,0.50000001 0 0 1 0.50023,-0.497644 0.50000001,0.50000001 0 0 1 0.49971,0.497644 h 0.76533 a 0.50000001,0.50000001 0 0 1 0.49971,-0.497644 0.50000001,0.50000001 0 0 1 0.50023,0.497644 h 0.76481 a 0.50000001,0.50000001 0 0 1 0.50023,-0.497644 0.50000001,0.50000001 0 0 1 0.49971,0.497644 h 0.76533 a 0.50000001,0.50000001 0 0 1 0.49971,-0.497644 0.50000001,0.50000001 0 0 1 0.50023,0.497644 h 0.76481 a 0.50000001,0.50000001 0 0 1 0.50022,-0.497644 0.50000001,0.50000001 0 0 1 0.49972,0.497644 h 0.76532 a 0.50000001,0.50000001 0 0 1 0.49971,-0.497644 0.50000001,0.50000001 0 0 1 0.50023,0.497644 h 0.76481 a 0.50000001,0.50000001 0 0 1 0.50023,-0.497644 0.50000001,0.50000001 0 0 1 0.49971,0.497644 h 0.76481 a 0.50000001,0.50000001 0 0 1 0.50023,-0.497644 0.50000001,0.50000001 0 0 1 0.50023,0.497644 h 0.76481 a 0.50000001,0.50000001 0 0 1 0.50023,-0.497644 0.50000001,0.50000001 0 0 1 0.49971,0.497644 h 0.76481 a 0.50000001,0.50000001 0 0 1 0.001,-0.02842 0.50000001,0.50000001 0 0 1 0.49919,-0.469219 0.50000001,0.50000001 0 0 1 0.0305,5.29e-4 0.50000001,0.50000001 0 0 1 0.11473,0.02066 v -0.807718 a 0.50000001,0.50000001 0 0 1 -0.14522,0.02119 0.50000001,0.50000001 0 0 1 -0.50022,-0.499712 0.50000001,0.50000001 0 0 1 0.50022,-0.500229 0.50000001,0.50000001 0 0 1 0.14522,0.02172 v -0.808221 a 0.50000001,0.50000001 0 0 1 -0.14522,0.0217 0.50000001,0.50000001 0 0 1 -0.50022,-0.500228 0.50000001,0.50000001 0 0 1 0.50022,-0.499713 0.50000001,0.50000001 0 0 1 0.14522,0.02171 v -0.808219 a 0.50000001,0.50000001 0 0 1 -0.14522,0.02119 0.50000001,0.50000001 0 0 1 -0.50022,-0.499713 0.50000001,0.50000001 0 0 1 0.50022,-0.500227 0.50000001,0.50000001 0 0 1 0.14522,0.0217 v -0.807699 a 0.50000001,0.50000001 0 0 1 -0.14522,0.02119 0.50000001,0.50000001 0 0 1 -0.50022,-0.500227 0.50000001,0.50000001 0 0 1 0.50022,-0.499711 0.50000001,0.50000001 0 0 1 0.14522,0.0217 v -0.80822 a 0.50000001,0.50000001 0 0 1 -0.14522,0.02119 0.50000001,0.50000001 0 0 1 -0.50022,-0.499712 0.50000001,0.50000001 0 0 1 0.50022,-0.500228 0.50000001,0.50000001 0 0 1 0.14522,0.0217 v -0.807701 a 0.50000001,0.50000001 0 0 1 -0.14522,0.02119 0.50000001,0.50000001 0 0 1 -0.50022,-0.500228 0.50000001,0.50000001 0 0 1 0.50022,-0.499711 0.50000001,0.50000001 0 0 1 0.14522,0.0217 v -0.80822 a 0.50000001,0.50000001 0 0 1 -0.14522,0.02119 0.50000001,0.50000001 0 0 1 -0.50022,-0.499711 0.50000001,0.50000001 0 0 1 0.50022,-0.500228 0.50000001,0.50000001 0 0 1 0.14522,0.0217 v -0.807703 a 0.50000001,0.50000001 0 0 1 -0.14522,0.02119 0.50000001,0.50000001 0 0 1 -0.50022,-0.500228 0.50000001,0.50000001 0 0 1 0.50022,-0.499711 0.50000001,0.50000001 0 0 1 0.14522,0.0217 v -0.80822 a 0.50000001,0.50000001 0 0 1 -0.14522,0.02119 0.50000001,0.50000001 0 0 1 -0.50022,-0.499712 0.50000001,0.50000001 0 0 1 0.50022,-0.500227 0.50000001,0.50000001 0 0 1 0.14522,0.0217 v -0.807702 a 0.50000001,0.50000001 0 0 1 -0.14522,0.02119 0.50000001,0.50000001 0 0 1 -0.50022,-0.500227 0.50000001,0.50000001 0 0 1 0.50022,-0.499711 0.50000001,0.50000001 0 0 1 0.14522,0.0217 v -0.808217 a 0.50000001,0.50000001 0 0 1 -0.14522,0.02119 0.50000001,0.50000001 0 0 1 -0.50022,-0.499711 0.50000001,0.50000001 0 0 1 0.50022,-0.500228 0.50000001,0.50000001 0 0 1 0.14522,0.0217 v -0.80769 a 0.50000001,0.50000001 0 0 1 -0.14522,0.02119 0.50000001,0.50000001 0 0 1 -0.50022,-0.500228 0.50000001,0.50000001 0 0 1 0.50022,-0.499711 0.50000001,0.50000001 0 0 1 0.14522,0.0217 v -0.808219 a 0.50000001,0.50000001 0 0 1 -0.14522,0.02119 0.50000001,0.50000001 0 0 1 -0.50022,-0.499712 0.50000001,0.50000001 0 0 1 0.50022,-0.500227 0.50000001,0.50000001 0 0 1 0.14522,0.0217 v -0.807704 a 0.50000001,0.50000001 0 0 1 -0.14522,0.02119 0.50000001,0.50000001 0 0 1 -0.50022,-0.500227 0.50000001,0.50000001 0 0 1 0.50022,-0.499712 0.50000001,0.50000001 0 0 1 0.14522,0.0217 v -0.807702 a 0.50000001,0.50000001 0 0 1 -0.14522,0.02119 0.50000001,0.50000001 0 0 1 -0.50022,-0.500228 0.50000001,0.50000001 0 0 1 0.50022,-0.500228 0.50000001,0.50000001 0 0 1 0.14522,0.0217 V 12.4712 a 0.50000001,0.50000001 0 0 1 -0.14522,0.02119 0.50000001,0.50000001 0 0 1 -0.50022,-0.500228 0.50000001,0.50000001 0 0 1 0.50022,-0.499711 0.50000001,0.50000001 0 0 1 0.14522,0.0217 z" />
    <path
       id="path178"
       style="fill:none;fill-rule:evenodd;stroke:#023942;stroke-width:0.2;stroke-linecap:round;stroke-miterlimit:4;stroke-dasharray:none;stroke-opacity:1"
       d="m 176.77002,12.230121 h 21 V 38.23012 h -21 z" />
  </g>
  <g
     transform="translate(0.31537838)"
     sodipodi:insensitive="true"
     inkscape:label="Postmark"
     id="layer3"
     inkscape:groupmode="layer">
    <circle
       r="11.960156"
       transform="matrix(-0.4765234,0.87916179,0.87916179,0.4765234,50.596908,6.6942869)"
       cy="117.32083"
       cx="-44.969292"
       id="circle869"
       style="opacity:0.25;fill:none;fill-rule:evenodd;stroke:none;stroke-width:0.5;stroke-miterlimit:4;stroke-dasharray:none;filter:url(#filter1634)" />
    <g
       id="g220"
       transform="translate(-4.4097223,0.88194447)"
       style="filter:url(#filter1634)">
      <g
         style="stroke:#000000;filter:url(#filter1634)"
         transform="translate(-151.84886,5.9769535)"
         id="g284">
        <path
           d="m 250,19.375 c 2.222,-0.6479 4.444,-1.0117 6.667,-0.8516 2.222,0.1601 4.444,0.8325 6.666,1.5715 2.223,0.739 4.445,1.4829 6.667,1.7409 2.222,0.258 4.444,0.0065 6.667,-0.5865 2.222,-0.5929 4.444,-1.4791 6.666,-2.0726 2.223,-0.5936 4.445,-0.8436 6.667,-0.5865 2.222,0.2571 4.444,1.0018 6.667,1.7409 2.222,0.739 4.444,1.4104 6.666,1.5715 2.223,0.1611 4.445,-0.2037 6.667,-0.8516 M 250,16.25 c 2.222,-0.6479 4.444,-1.0117 6.667,-0.8516 2.222,0.1601 4.444,0.8325 6.666,1.5715 2.223,0.739 4.445,1.4829 6.667,1.7409 2.222,0.258 4.444,0.0065 6.667,-0.5865 2.222,-0.5929 4.444,-1.4791 6.666,-2.0726 2.223,-0.5936 4.445,-0.8436 6.667,-0.5865 2.222,0.2572 4.444,1.0018 6.667,1.7409 2.222,0.739 4.444,1.4104 6.666,1.5715 2.223,0.1611 4.445,-0.2037 6.667,-0.8516 m -60,-4.801 c 2.222,-0.6479 4.444,-1.0117 6.667,-0.8516 2.222,0.1602 4.444,0.8325 6.666,1.5715 2.223,0.739 4.445,1.4829 6.667,1.7409 2.222,0.258 4.444,0.0065 6.667,-0.5865 2.222,-0.5929 4.444,-1.4791 6.666,-2.0726 2.223,-0.5936 4.445,-0.8436 6.667,-0.5865 2.222,0.2572 4.444,1.0018 6.667,1.7409 2.222,0.739 4.444,1.4104 6.666,1.5715 2.223,0.1611 4.445,-0.2037 6.667,-0.8516 M 250,22.5 c 2.222,-0.64788 4.444,-1.01174 6.667,-0.85159 2.222,0.16014 4.444,0.83249 6.666,1.57149 2.223,0.739 4.445,1.4829 6.667,1.7409 2.222,0.258 4.444,0.0065 6.667,-0.5865 2.222,-0.5929 4.444,-1.4791 6.666,-2.0726 2.223,-0.5936 4.445,-0.84359 6.667,-0.58647 2.222,0.25712 4.444,1.00177 6.667,1.74087 2.222,0.739 4.444,1.4104 6.666,1.5715 2.223,0.1611 4.445,-0.2037 6.667,-0.8516 M 250,10 c 2.222,-0.64788 4.444,-1.01174 6.667,-0.85159 2.222,0.16014 4.444,0.83249 6.666,1.57149 2.223,0.739 4.445,1.4829 6.667,1.7409 2.222,0.258 4.444,0.0065 6.667,-0.5865 2.222,-0.5929 4.444,-1.4791 6.666,-2.0726 2.223,-0.5936 4.445,-0.84359 6.667,-0.58647 2.222,0.25712 4.444,1.00177 6.667,1.74087 2.222,0.739 4.444,1.4104 6.666,1.5715 2.223,0.1611 4.445,-0.2037 6.667,-0.8516"
           style="opacity:0.75;fill:none;fill-rule:evenodd;stroke:#000000;stroke-width:0.499999;stroke-linecap:round;stroke-opacity:1"
           id="path282" />
      </g>
      <circle
         r="13.25"
         cy="23.065119"
         cx="175.16982"
         id="path303"
         style="fill:none;fill-rule:evenodd;stroke:#000000;stroke-width:0.5;stroke-miterlimit:4;stroke-dasharray:none;filter:url(#filter1634)" />
      <circle
         style="opacity:0.5;fill:none;fill-rule:evenodd;stroke:none;stroke-width:0.5;stroke-miterlimit:4;stroke-dasharray:none;filter:url(#filter1634)"
         id="circle1421"
         cx="17.604071"
         cy="-124.40463"
         r="8.3552084"
         transform="rotate(89.432409,21.917987,28.897462)" />
      <text
         xml:space="preserve"
         style="font-style:normal;font-variant:normal;font-weight:600;font-stretch:normal;font-size:4.93889px;line-height:1.2;font-family:'Open Sans';-inkscape-font-specification:'Open Sans, Semi-Bold';font-variant-ligatures:normal;font-variant-caps:normal;font-variant-numeric:normal;font-variant-east-asian:normal;text-align:center;letter-spacing:0.264583px;word-spacing:0px;text-anchor:middle;stroke:none;stroke-width:0.264583;filter:url(#filter1634)"
         id="text1433"><textPath
           xlink:href="#circle1421"
           startOffset="50%"
           id="textPath1435"
           style="font-style:normal;font-variant:normal;font-weight:600;font-stretch:normal;font-size:4.93889px;font-family:'Open Sans';-inkscape-font-specification:'Open Sans, Semi-Bold';font-variant-ligatures:normal;font-variant-caps:normal;font-variant-numeric:normal;font-variant-east-asian:normal;text-align:center;text-anchor:middle;stroke:none;stroke-width:0.264583">PARIS</textPath></text>
      <text
         xml:space="preserve"
         style="font-style:normal;font-variant:normal;font-weight:600;font-stretch:normal;font-size:4.9389px;line-height:1.2;font-family:'Open Sans';-inkscape-font-specification:'Open Sans, Semi-Bold';font-variant-ligatures:normal;font-variant-caps:normal;font-variant-numeric:normal;font-variant-east-asian:normal;letter-spacing:0.661458px;word-spacing:0px;stroke:none;stroke-width:0.264583;filter:url(#filter1634)"
         id="text1446"
         inkscape:transform-center-x="1.0561538"
         inkscape:transform-center-y="8.5817434"
         transform="rotate(10.620862,176.46978,23.387662)"><textPath
           xlink:href="#circle869"
           id="textPath871"
           style="font-style:normal;font-variant:normal;font-weight:600;font-stretch:normal;font-size:4.9389px;font-family:'Open Sans';-inkscape-font-specification:'Open Sans, Semi-Bold';font-variant-ligatures:normal;font-variant-caps:normal;font-variant-numeric:normal;font-variant-east-asian:normal;stroke:none;stroke-width:0.264583">75007</textPath></text>
      <text
         xml:space="preserve"
         style="font-style:normal;font-variant:normal;font-weight:normal;font-stretch:normal;font-size:3.52778px;line-height:1.2;font-family:'Open Sans Condensed';-inkscape-font-specification:'Open Sans Condensed, Normal';font-variant-ligatures:normal;font-variant-caps:normal;font-variant-numeric:normal;font-variant-east-asian:normal;letter-spacing:0px;word-spacing:0px;stroke-width:0.264583;filter:url(#filter1634)"
         x="157.88635"
         y="13.587922"
         id="text951"
         transform="matrix(0.7533022,0,0,1.3274885,50.596908,6.6942869)"><tspan
           y="13.587922"
           x="157.88635"
           sodipodi:role="line"
           id="tspan178">31.12.2020</tspan></text>
    </g>
  </g>
</svg>
